<svg width="296" height="296" viewBox="0 0 296 296" fill="none" xmlns="http://www.w3.org/2000/svg">
<path d="M222.813 256.658L85.0061 245.36L100.193 57.5242L238 68.8213L222.813 256.658Z" fill="url(#paint0_linear)"/>
<g filter="url(#filter0_d)">
<path d="M221.16 253.976L87.0659 242.98L101.845 60.2053L235.939 71.1986L221.16 253.976Z" fill="#0D47A1"/>
</g>
<path d="M229.086 225.073L93.3059 251.337L58 66.2634L193.78 40L229.086 225.073Z" fill="url(#paint1_linear)"/>
<path d="M226.781 222.935L94.6597 248.492L60.3052 68.4017L192.426 42.8474L226.781 222.935Z" fill="#E0E0E0"/>
<path d="M212.674 53.9785H74.4116V242.437H212.674V53.9785Z" fill="url(#paint2_linear)"/>
<path d="M210.814 56.5168H76.2751V239.896H210.814V56.5168Z" fill="white"/>
<path d="M121.612 88.1571C121.758 100.428 131.759 110.256 143.946 110.104C156.133 109.952 165.899 99.8875 165.747 87.614C165.7 83.0526 164.25 78.6162 161.594 74.907C158.937 71.1977 155.204 68.3951 150.9 66.8796L150.968 72.6028C150.998 74.5928 150.238 76.5136 148.854 77.9444C147.47 79.3752 145.576 80.1994 143.585 80.2364C141.598 80.2477 139.687 79.4721 138.27 78.0792C136.853 76.6862 136.045 74.7892 136.023 72.8025L135.955 67.0794C131.69 68.6976 128.027 71.588 125.461 75.3585C122.895 79.129 121.551 83.5972 121.612 88.1571Z" fill="url(#paint3_linear)"/>
<path d="M165.756 85.8188C165.756 73.5453 155.877 63.5903 143.687 63.5903C131.497 63.5903 121.618 73.5397 121.618 85.8188C121.61 90.381 123.006 94.8352 125.617 98.5767C128.229 102.318 131.928 105.166 136.214 106.733V101.01C136.212 99.0234 136.998 97.1169 138.398 95.7071C139.798 94.2973 141.699 93.4989 143.687 93.4862C145.674 93.4989 147.575 94.2973 148.976 95.7071C150.376 97.1169 151.161 99.0234 151.159 101.01V106.736C155.446 105.169 159.146 102.32 161.757 98.5784C164.368 94.8363 165.764 90.3815 165.756 85.8188Z" fill="#0D47A1"/>
<path d="M143.701 91.3054C148.386 91.3054 152.184 87.4808 152.184 82.7629C152.184 78.0451 148.386 74.2205 143.701 74.2205C139.016 74.2205 135.218 78.0451 135.218 82.7629C135.218 87.4808 139.016 91.3054 143.701 91.3054Z" fill="white" stroke="white" stroke-miterlimit="10"/>
<path d="M143.687 93.4861C141.699 93.4987 139.798 94.2972 138.398 95.707C136.997 97.1168 136.212 99.0233 136.214 101.01V106.736C141.043 108.479 146.33 108.479 151.159 106.736V101.01C151.161 99.0233 150.376 97.1168 148.975 95.707C147.575 94.2972 145.674 93.4987 143.687 93.4861Z" fill="white" stroke="white" stroke-miterlimit="10"/>
<path d="M135.144 82.2902C134.463 80.9619 134.151 79.4752 134.241 77.9852C134.338 76.4913 135.012 75.0937 136.121 74.0882C137.357 73.0274 139.031 72.6531 140.65 72.5237C142.268 72.3943 143.909 72.4731 145.502 72.1551C146.821 71.8848 148.073 71.3544 149.184 70.5949C150.296 69.8355 151.245 68.8622 151.976 67.7319C152.077 68.984 152.178 70.2643 151.939 71.4911C151.7 72.7179 151.069 73.939 150.005 74.5862C151.294 73.9869 151.154 75.3937 150.875 76.235C151.514 77.0116 153.065 77.1411 153.144 78.1456C153.222 79.1501 153.208 80.1883 152.82 81.114C152.431 82.0398 152.848 83.6745 151.852 83.7449" fill="white"/>
<path d="M135.144 82.2902C134.463 80.9619 134.151 79.4752 134.241 77.9852C134.338 76.4913 135.012 75.0937 136.121 74.0882C137.357 73.0274 139.031 72.6531 140.65 72.5237C142.268 72.3943 143.909 72.4731 145.502 72.1551C146.821 71.8848 148.073 71.3544 149.184 70.5949C150.296 69.8355 151.245 68.8622 151.976 67.7319C152.077 68.984 152.178 70.2643 151.939 71.4911C151.7 72.7179 151.069 73.939 150.005 74.5862C151.294 73.9869 151.154 75.3937 150.875 76.235C151.514 77.0116 153.065 77.1411 153.144 78.1456C153.222 79.1501 153.208 80.1883 152.82 81.114C152.431 82.0398 152.848 83.6745 151.852 83.7449" stroke="white" stroke-miterlimit="10"/>
<path d="M150.478 74.4009C150.478 74.4009 156.388 74.9214 152.183 83.7678L150.478 74.4009Z" fill="white"/>
<path d="M107.154 201.508H88.8787V219.91H107.154V201.508Z" fill="url(#paint4_linear)"/>
<path d="M105.575 203.095H90.4519V218.323H105.575V203.095Z" fill="#FBBD05"/>
<path d="M165.756 125.363H121.646V128.537H165.756V125.363Z" fill="#FBBD05"/>
<path d="M196.004 129.806H121.646V132.98H196.004V129.806Z" fill="#E0E0E0"/>
<path d="M196.004 134.246H121.646V137.42H196.004V134.246Z" fill="#E0E0E0"/>
<path d="M165.756 165.022H121.646V168.196H165.756V165.022Z" fill="#FBBD05"/>
<path d="M196.004 169.462H121.646V172.636H196.004V169.462Z" fill="#E0E0E0"/>
<path d="M196.004 173.906H121.646V177.079H196.004V173.906Z" fill="#E0E0E0"/>
<path d="M165.756 204.679H121.646V207.853H165.756V204.679Z" fill="#FBBD05"/>
<path d="M196.004 209.122H121.646V212.296H196.004V209.122Z" fill="#E0E0E0"/>
<path d="M196.004 213.565H121.646V216.739H196.004V213.565Z" fill="#E0E0E0"/>
<defs>
<filter id="filter0_d" x="83.0659" y="60.2053" width="156.874" height="201.77" filterUnits="userSpaceOnUse" color-interpolation-filters="sRGB">
<feFlood flood-opacity="0" result="BackgroundImageFix"/>
<feColorMatrix in="SourceAlpha" type="matrix" values="0 0 0 0 0 0 0 0 0 0 0 0 0 0 0 0 0 0 127 0"/>
<feOffset dy="4"/>
<feGaussianBlur stdDeviation="2"/>
<feColorMatrix type="matrix" values="0 0 0 0 0 0 0 0 0 0 0 0 0 0 0 0 0 0 0.25 0"/>
<feBlend mode="normal" in2="BackgroundImageFix" result="effect1_dropShadow"/>
<feBlend mode="normal" in="SourceGraphic" in2="effect1_dropShadow" result="shape"/>
</filter>
<linearGradient id="paint0_linear" x1="153.873" y1="251.028" x2="169.152" y2="63.1194" gradientUnits="userSpaceOnUse">
<stop stop-color="#808080" stop-opacity="0.25"/>
<stop offset="0.54" stop-color="#808080" stop-opacity="0.12"/>
<stop offset="1" stop-color="#808080" stop-opacity="0.1"/>
</linearGradient>
<linearGradient id="paint1_linear" x1="147024" y1="143372" x2="120319" y2="4260.51" gradientUnits="userSpaceOnUse">
<stop stop-color="#808080" stop-opacity="0.25"/>
<stop offset="0.54" stop-color="#808080" stop-opacity="0.12"/>
<stop offset="1" stop-color="#808080" stop-opacity="0.1"/>
</linearGradient>
<linearGradient id="paint2_linear" x1="71684.7" y1="135642" x2="71684.7" y2="9416.57" gradientUnits="userSpaceOnUse">
<stop stop-color="#808080" stop-opacity="0.25"/>
<stop offset="0.54" stop-color="#808080" stop-opacity="0.12"/>
<stop offset="1" stop-color="#808080" stop-opacity="0.1"/>
</linearGradient>
<linearGradient id="paint3_linear" x1="145.086" y1="109.745" x2="142.838" y2="66.3701" gradientUnits="userSpaceOnUse">
<stop stop-opacity="0.12"/>
<stop offset="0.55" stop-opacity="0.09"/>
<stop offset="1" stop-opacity="0.02"/>
</linearGradient>
<linearGradient id="paint4_linear" x1="6597.87" y1="11967.6" x2="6597.87" y2="10764.1" gradientUnits="userSpaceOnUse">
<stop stop-color="#808080" stop-opacity="0.25"/>
<stop offset="0.54" stop-color="#808080" stop-opacity="0.12"/>
<stop offset="1" stop-color="#808080" stop-opacity="0.1"/>
</linearGradient>
</defs>
</svg>
